<svg xmlns="http://www.w3.org/2000/svg" width="500" viewBox="0 0 375 375" height="500" version="1.0"><defs><clipPath id="a"><path d="M13 49h349v249H13Zm0 0"/></clipPath><clipPath id="b"><path d="M192 226h107v100H192Zm0 0"/></clipPath><clipPath id="c"><path d="M13 49h349v249H13Zm0 0"/></clipPath></defs><g clip-path="url(#a)"><path fill="#ffbd59" d="M362 49v249H13V84l35-35h314"/></g><path fill="#fff" d="M268 253v-2h-1v-1h1l-1-1v-5 1l-1-1v-1a21 21 0 1 0-33 25h1l1 1v1h1v1h2c-1 0 0 0 0 0h2v1h-1l3 1v-1h5v1h1-1 3v-1h1l-1 1 2-1v-1l1 1h1v-1l1-1h2v-1h1l-1 1 3-2h-1l1-1v1-1h1v-1l1-1h1v-2h1l1-1v-1l-1 1 1-2v1h1s-1 0 0 0v-1h-1l1-2 1-1c0 1 0 0 0 0l1-2h-1l1-1h-1l1-1Zm-1 5v1-1Zm-2 5h-1 1Zm-1 0v1-1Zm-19 10h-1 1Zm-1 0h-1 1Zm-5-1h-1 1Zm-86-171h72V89h-72Zm114 143v-1 1Zm1 1-1 1h1v-1Zm72-152v161c-14 0-26 12-26 26H61c0-14-12-26-26-26V93c14 0 26-12 26-26h253c0 14 12 26 26 26Zm-74 164Zm-29 13v1-1Zm11 2v1-1Zm19-16Zm-27 16"/><g clip-path="url(#b)"><path fill="#f90" d="M226 251c0 7 3 14 8 17 4 3 8 4 12 4 12 0 21-9 21-21s-9-19-21-19-20 7-20 19Zm-5 0c0-13 12-25 25-25s25 12 25 25-13 26-25 26c-13 0-25-13-25-26Zm48 18-23 18 30 39 5-18h18Zm-46 0 23 18-30 39-5-18h-18l30-39"/></g><path fill="#ff914d" d="M251 271h1-1Zm15-14Zm-5 8h1v-1l-1 1Zm-14 6h1-1Zm20-16Zm-19 16v2-2Zm-11-1v1-1ZM95 251h76v-15H95Zm148 19h-1l1 1h-3 1v1h2v-2Zm-3 2Zm23-19v-1 1Zm-16 14Zm22-16a23 23 0 1 0-46 0 23 23 0 0 0 46 0Zm13 0a36 36 0 1 1-72 0 36 36 0 0 1 72 0Zm-37 18Zm11-2v-1 1Zm9-23h-2 1-1 2Zm0 3h-1v1h1v-1c0-1 0 0 0 0Zm-2 2v1h-1v2l1-1v-1c2 0 1-2 0-1Zm-1-8 1-1-1 1Zm-1 7 1-1h-1v2-1Zm0 3h-1 1Zm-1-4v-1c0-1 0 0 0 0h-1v2l1-1Zm-1 7h-1 1Zm0 4h-1 1v-1 1Zm1-1s0-1 0 0h1v-1h-1v1Zm2 1h-1v1h1l1-1h-1Zm1-1 1 2h1c1 0 0-2-1-1v-2h-1v1Zm2 4h-1v-1c0-1-1 0 0 0h-1v-1h-1v2-1h1l1 1h1Zm-4-1v1-1Zm0 1-1-1v1h1Zm-1 1v-1l-1 1v1h1v-1Zm-1 1h-2v1h2v-1Zm-3 0 1-1v-1h-1v1h-2v1h2Zm-2-4h-1 1Zm-1 2v-1l-1 1h1v1-1Zm-1 3v2h-1v-1h-1v-1l-1 1 1 1c0-1 0 0 0 0v1h1v-1l1 1h1s1 0 0 0v-1l1 1c1 0 0-2-1-1v-1l-1-1Zm1 5v1h1l-1-1Zm-1 0v1-1Zm0-2-1 1v-1l-1 1h-1 1l1 1 1-2Zm-1 2-1 1 1-1Zm-2-4h-1v-1h-1l1 1h1Zm-2 1-1-1v1s0 1 0 0h1Zm-1-3v-1l1 1 1-1h-2s0-1 0 0h-1v-1 1l1 1Zm-2-4h1-1s0 1 0 0Zm0 2-1 1 1-1Zm-1 3h-1v1h1v-1Zm0 4h1v-2l-1 1v1Zm-1-2h-1l-1 1h1l1 1v-1 1-2Zm-2-3c1-1-1-1-1-1v1h1Zm0 3-1-1-1 1h2Zm-1-5c0 1 1 0 0 0 0 0-1 0 0 0Zm0-6 2-1-1 1h-1Zm2 3-1 1h2l-1-1Zm0 0h2l-1-1h-1v1Zm4 2c-1 0 0 1 0 0 1 0 0-1 0 0Zm2-5v-1 1Zm1-6h1-1Zm0 3v1-1Zm1 1v-1 1h1v-1h-1v1Zm1-2h1l-1-1v1Zm-1 5h1-1Zm1 6v-1 1Zm-3-4c1 1 1 0 1-1l-1 1Zm2 5h-2 2Zm1-2v-1h-3v1h3Zm2 1h1l-1-1-1 1v2h1v-2Zm-1-4v-1h-2v1s0 1 0 0h1v1h1v2h1v-3h-1Zm1-3v1h1s0-1 0 0v-1h-1Zm0-1h3s0-1 0 0l-1-1v-1 1h-1l-1 1Zm0-9h1-1Zm1 2v1-1Zm2 5v-1 1Zm1 0c0 1 0 0 0 0v1c0-1-1 0 0 0h1v-2 1h-1c0-1-1 0 0 0Zm1-11h1-1Zm1 3c-1-1-1 0-1 1l1-1Zm-1 10h1l-1-1v1Zm-3 3v-2l-1 1 1 1Zm0 2 1 1v-1h-1Zm1 0h1-1Zm1 2h1l-1-1h-1l1 1Zm4-2h1l-1-1v1Zm-1 1-1-1v2h1v-1h1-1Zm-1-4v-1h-1l-1 1h1v1h-1s-1 0 0 0l-1 1v-1h-1v1h1c0 1 0 1 0 0h1v1-1h2v-2Zm-1-4h2v-1h-1l-1 1Zm1-3c1 1 2-1 1-1l-1 1Zm0-5 1-1-1 1Zm2 0h1v-2 2h-1Zm3 1h1-1v1c-1 0-1 0 0 0v1-1l1-1h-1Zm3 3v-1 1Zm0 3v-1 1Zm-7 16v-1 1Zm-21-3-1 1 1-1Zm-1 1v1-1Zm0 2h-1v1h1v-1Zm-1-4v-1 1h2l-1-1h-1v1Zm-1 2h-1 1Zm-1 1h-1 1Zm-1-4h-1 1Zm33-19v1h-1v1h1v1l1-1v4h-2v1h2v4h-2v-1h-1l1-1h-1v-1l1-1-1 1-1 1h-1 1l-1 1c0-1 0 0 0 0l-1-1-1 1v1h-1v1c0 1 2 0 1-1h2l1-1v2h-1 2v1l1-1h2-1l-1 1-1 1h2v1l-1 2a21 21 0 0 1-1 2h-2v1h1v1h-1c0-1 0-1 0 0h-1v-1h1l-1-1v1h-1l1 1-1 1h-1v1h1v-1 1h1l-1 1-1 1v-1l-1 1v1h-1v-2c1 0-2-3-2-1 1-1 0-2-1-1h-1 1v1l1-1-1 1 1 1h-1v2h2v1h-2v1a18320 18320 0 0 0-1-1h-1c0-1-2 0-1 1v1h-1l-1-1v-2l-1 1-2-1v-1h3v-1h-1s0-1 0 0h-1v-1l-1 1v-1h-1v-1l1-1-1-1h-1v2h-1v1h1l1 1v2h1v1l-1 1h1v1h1-2v-2h-1v-1h-1v1c1-1-2-2-1-1h-1v1-2h-2v3l-1-1v-1h-1l-1 1v-1h-1l-1-1-1-1v1a21 21 0 1 1 33-25Zm-11 25h1v-1l-1 1Zm8-14v1h1v-1h-1Zm-7 3c0 1 0 1 0 0Zm7-5Zm-13-134H128v11h122Zm17 138-1 1 1-1ZM35 125v1-1Zm0 2v-1 1Zm5 1v-2l-1 1 1 1Zm-5 5Zm2-3-1 2 1-2Zm2-4 1-1v-2h-3l1 1h1-1v1h1v1Zm-2-13v1l1-1v-1l-1 1Zm-1 11v-1h-1v1l1 1v-1Zm0-3h1-1Zm-1 13v1-1Zm0-11 1-1h-1v1Zm3-6v1c1 0 2-2 0-1Zm-3 2v1l1-1h-1Zm1-3c1 0 0 0 0 0v1l-1 1h1v-2Zm-1-3v2-2l1-1v-1c1-1 0-2-1-1l1 1v1c-1-1-1 0-1 1Zm4 9h1c1 0 0-2-1-1l-1-1v2h1Zm-2-7v-1h-1c-1 1 0 2 1 1 0 2 2 1 1 0h-1Zm0 5 1-1s0-1 0 0l-1-1v2Zm-1-11c1 1 1 0 1-1l-1 1Zm-1 8 1-1-1-1v2Zm16 4-1-1v-1h-1v2h1v1c1 1 2 0 1-1 0 0 0-1 0 0Zm7-6h-1v2h1l-1-1h1v-1Zm-1-9-2-1v1h-1v2l1-1h1-1v-1l1 1 1-1Zm0 5-1 1 1 1v-2Zm2-3c1-1 0-2-1-1v1l1 1v-1Zm2-5v-1h-1v2c1 1 2 0 1-1Zm1 5 1-1c0-1-2 0-1 1Zm1-3v-1s-1 0 0 0h-1l1 1Zm-4-2h-1c2 0 1-2 0-2v1h-1v2h1l1 1v-2Zm3-1h-1v1l1-1Zm-7 7h-1v1h-1v1h3v-1l-1-1Zm-10 7-1-1v-1h-1l-1-1v-1h1v-1h-1v-1h-1c0-2-2-1-1 0h-1l-2 1h3v1l1-1v-1 2h-1v1l1 1 1 1v2l1-1 1 1 1-1 1 1h1v-1h-2Zm-4-5Zm-2 26 1 1 1-1h-2Zm6-20v1l-1 1h1l1-1-1-1Zm-3 1h-1 1Zm0 1v-1h-1c1 1 0 2-1 1h-1v-1l1 1 1-1v-1l1 1h1l1-1v2c1 0-2 2-2 0Zm-2-4h-1v2h1v-2Zm9 7v-1l-1 1v1l1 1 1-2h-1Zm3-7h1-1Zm-4 7h-1v1c0 1 2 0 1-1 0 1 0 0 0 0Zm-3-10v1h-1l1 1v1h1s0-1 0 0v-2l1-1h-2Zm3 1v-1h1l-1-1c0-1-1-2-2-1l1 1v1l1 1Zm-1-5c0-1-1-2-2-1v2h1v-1h1Zm27-31h1l1-1h-1l-1-1v2Zm-7 11h2v1l1-1-1-1-1-1v1h-1c0-1 0 0 0 0v1Zm6-2c2 0 1-2 0-1v1Zm-1-5-1 2 1-2Zm5-1h1l-1-1v1h-1 1Zm-7 11h-1l-1-1-1 1s1 1 0 0l1 1 1-1h1Zm2-4-1 1s0 1 0 0c1 1 2-1 1-1Zm-5 10h-1 1c0 2 2 0 1 0h-1Zm2-2h1v-2h-3v1h2v1Zm3-11v1-1ZM43 95Zm26-23c-1 1 0 2 1 1l-1-1Zm-33 34Zm1-11v-1l-1 1h1Zm0 3Zm1-4Zm0 7h1v1l1-2 1-1-1-1h-1v3h-1Zm1-5Zm0 0h1-1Zm1 8h1v1-1h-1Zm-1-1h-1 1Zm-1 2c0 1 0 0 0 0Zm0-8h-1 1Zm3 6h1-1Zm1-3h1v1h-1v-1l1 1v-1h1l1-1 1-1h-1v-1h-1v1l-1 1v-1l-1 1v1Zm0-3Zm0-2h1v-1h1l1 1v-1l-1-1v1h-2v1Zm3-4 1 1h1v-1h-2Zm2 5-1 1v-1l-1 1h3v-1h-1Zm0-2h1v-1l-1 1Zm-3 8c-1 0 0 0 0 0Zm-2 1Zm7-7v1h2l1 1h-1 1v2l1-1v-1l-1-1h1v-1h1v-2l-1 1h-2v-1 3h-1l-1-1 1-1v-1 1h-1v1Zm0-4 1 1v1-1h1v-3l-1 1h1l-1 1-1-1v1Zm2 2h1v-1l-1 1Zm1-3 1 1v1l1 1v-1h1-2l1-1-1-2v1l-1-1v1Zm2-2v1l1-1 1-1h-2v1Zm2 1h1v-1h1-2v1Zm1-7h1v-1l1-1v2h2v-1h-1v-2l-1 1h-2v2Zm0 3Zm1-7Zm0 0h2-2Zm6 2Zm4-3-1 1 1-1c-1 0-1 0 0 0Zm-4-5h-1 1Zm-3 6v2l1 1 1 1-1 1v2h1v-2l1-1v1l1-1v-1h-1l-1-1 1-1 1-1v2h1v-1h1v1h1v-1c-1 0-1 0 0 0l-1-1h-1v-1l-1 1h-1v-1l1-1v-1h1v1h1l1 1 1-1h1v-3l1-1v-1h1l1 1v-2h-5l-1-2h-1v-1l-1 1-1-1c0 1 0 0 0 0h-2v1h2l1 1h-1l-1 1 1 1 1-2h2v1h-1v1h-2v1h2v-1h1v-1h1v2h-1l-1 1h1v1c0 1 0 0 0 0h1l1 1h-1v1l-1-1v1l-1-1v-1h-3v1l-1 1h1l-1 1h-1v1Zm0-3 1 1-1-1Zm8-6h2v-1h-1l-1 1Zm4 3Zm-3 7h-1v-1h-1l1 1h1Zm-1 1v1-1Zm0 1h-1 1Zm-3 0Zm-4 8v-1 1Zm-1-6v-1 1Zm0 2v-2h-1v1h-1v1h2Zm0 2v-1l-1 1v1h1-1 1v-1Zm-1 4v-1l-1 1h1Zm-1-2v-1h1l-1-1-1 1h1v1Zm0 0Zm0 3Zm-1-2Zm0-6h1-1v-1h-1s1 0 0 0v1h1Zm0 9Zm0-2h-1s-2 0-1-1l-1 1 1 1v1-1h1v-1h1Zm-2 2h-1 1Zm-2 4Zm19-24Zm1-1Zm1 0h1v-1l-1-1v2Zm1-1 1 1 1-1v-1h-1c0 1 0 0 0 0l-1 1Zm-31 33h1-1Zm1-1v1-1Zm0-1Zm-10-1v1-1h1v-1h-1v-1h-1v-7l1 1v-1c-1 0-1 0 0 0h1a26 26 0 0 0 3-1h2v1-1h1v1h1v-2l3-1h1v-1h1l2-1-1 1h1l1-1 1-1v1h1v-1h3l-1 1h1v-1h-1l1-1h-2l-1 1h-1v-1l1-1 1-1v-1a27 27 0 0 0 5-8v-1h3-1v-2l-1-1s1 0 0 0a28 28 0 0 0 0-3v-1h7v1-1h2v1l1 1 1-2h-1 2v3h2l1 1 1-1v-1l1-1 1 1v1c0-1 0-2 1-1v1h-1v1c1-1 2 0 1 1h-2v1l1 2-1-1-1-1v2h1v1l1-1c1 1 0 2-1 1v1l-1 1-1-1v-1l-1-1v-1 1h-3l1-1h-1c-1 0-1 0 0 0v1l1 1-1 1h-1l1 1-1 1v1h1v1h-1l-1 1v4h-1l1-1c-1 0-2 0-1-1l-1-1s0 1 0 0h-1v-1l-1 1v-1l-1 1h1l1 1h1v2h-2v1c-1 0-2 0-1-1h-1v2h-1v3h-2v1l1 1h-2l1 1h-2l1-1h-1v1c1 0 0 2-1 1h-2v1h-1v1h1v1l1 1s-1 0 0 0v1c1 1-2 1-1-1h-2v2l-1 1h1l-1 1c0-1 0 0 0 0l-1-1v-2 2h-2l-1-1-1 1c0 1 0 1 0 0v-1h3-1v-3h-1l-1-1-1 1v1l1-1h1v1h-1v1l-1-1h-1v1h-1v2h2v1s1 0 0 0v3h-1l-1-1h-1v-2 3h-1v1s1 0 0 0h1v2h-1l-1-1 1-1h-1v-2 1h-3v2h-1c-1 0-1 0 0 0v-1s-1 0 0 0l-1-1-1 1v1l-1-1 1-1h-1v-1h1v-3Zm27-22v-1 1Zm16 1Zm0 0h1l-1-1v1Zm-39 25h-1 1Zm-5-6v2l1-1-1-1Zm38-20 1 1v1l1-1v-1h1v-2h-2v1h-1c1-1-1-2-1-1l1 1v1Zm7-2c0-2-2-1-1 0v1-1h1Zm-2 8h-1v-1h-2v-1h-1v2l1-1 1 1h1v2c0 1 2 0 1-1v-1Zm-28 28-1-1 1 1Zm-1-10h1v-2l-1 1-1 1h1Zm18-16h-2 2Zm-3 19h1v-1c-1-1-2 1-1 1Zm-10 1h-1 1Zm-11 4v1c1 1 2-1 0-1Zm3-12 1 1-1-1Zm10 3 1-1h-1v-1c-1-1-2 0-1 1l1 1Zm-8 6s0 1 0 0l1 1s2-1 0-2l-1-1-1 1h1v1Zm4-7h-1v1l1-1Zm-5 4v1-1Zm13-11h2-2Zm5-4c-1-1-2 0-2 1h-1 2l1-1Zm1 0v-2 2Zm-6 7-1-1-1 1v-1h-1v1l1 1v2l1-1v-1h1v-1Zm0 4c1 0 0-2-1-1l1 1Zm-9 10c1 1 1 0 1-1l-1 1Zm0-2v-1 1Zm0 0-1 1 1-1c-2-1 0-3 0-1h1l-1 1Zm4-6h-1v1h-1 2v-1Zm-3 2h2l-1-1c1-1-1-2-1-1v1s0 1 0 0v1h-1v-2l-1 1c0-1 0 0 0 0h-2l2 1v2l1-1h1v-1Zm8-10h-1c0 2 2 1 1 0Zm272 138 1 1h1v-1h-2v-1l-1 1h1Zm-44 41 1-1h-1v1Zm2 4h-1l-1 1h2v-1Zm-2-7v-1 1Zm0-3-1 1 1-1Zm3 7h-1v1h-1c1-1-1-2-1-1v1h1c-1 1 1 1 1 1 1 0 2-1 1-2Zm-5 1v1l1-1h-1Zm7-1h1l1-1h-2v1Zm1 0v2l1-1-1-1Zm-2-13h1c0-2-2-1-1 0Zm2 8h-1l-1-1v1l1 1 1-1Zm39-32h1-1Zm-3-3h1l-1-1v1Zm1-8h1l-1-1h1-1v1Zm5 10Zm1 2Zm-2-1h-1 1l-1-1-1-1c0 1-1 2-2 1l1-1h6l-1 1 1 1c1 0 0 2-1 1l-1-1h-1Zm-52 33h1-1Zm2 7v-1h-1l1 1Zm-2-1v1-1Zm1-9c-1 0-2 0-1 1l1-1Zm55-30h1v-3h-2l1 2v1Zm-52 39-1 1-1 1h2v-2Zm33-16h-2 2v1h-1l-1 2v-1 1h-1v-1l-1-1v-1h-1v-1h3l-1-1v-2 2h-2l-1-1-1 1h1v3h1l1 1c-1 0-2 0-1 1l1 1 1-1 1 1h-2v1l1 1h-1v1h-1v-1h1v-1l-1-1v1h-2c0 1 0 2 1 1v2h2v-1l1-1 1-2 1-1h-1l2-1h-1l1-1v1-2s1 0 0 0l2-1-2 1Zm-9 8Zm-3 4v1-1Zm6 2v3h-1l1 1h-3v-1 1h-1l-1-1v-1h-2l1-1c-1 0-2 0-1-1v-1l-1-1h2v-1h3v2h-1v-1l-2 1 1 1v-1h1l1 1h-1v2h1v-2l1-1h2v1Zm0 4v-1 1Zm-3 0Zm2-8Zm3-1-1 2h-1 1c0 1 0 2-1 1v-1h-1l-1 1v-1h-1l-1-1h1-1v-1h-1v-1h1v-1l2-1-1-1c-1-1 1-2 1 0v1l1 1h-2v2h1v-1 1l1 1h1l1-1h1Zm21-18v-1 1Zm-1 1Zm-4-3Zm-1 2v1-1Zm4-7Zm3 3v-1 1Zm2 5h-4l-2 1h-1v-1h-1c0 1 0 1 0 0l-1 1v1h-2l-1 1-2 1v-1s-1 0 0 0h-2v1h1v1h-2v-3h1l1-1 1 1h3v-1h1v-1h-2l-1 1s0-1 0 0h-1l-1-1v1h-2v1h-1v4h1l-1 1v-1h-1v-1l-1-1v-1h-1v-1h2v-1h-1 1l1-1h1l1-1s0 1 0 0v-1l1 1h2v-1h1v1l1 1v-2h1l1-1-1-1 1-1s0 1 0 0h2l-1 1 1 1v1h1v-1h1l1-1v-1h-1v1h-1v-3l-1-1 1-1h-1v-1h-3v-1 1h-1l-1 1v1h-3v1-1c-1 0 0 0 0 0v-1l-1-1h2l-1-1 1-1h1v2h1v-1l1-1c1 0 0 0 0 0l1-1h-1 2v1h1v1-1c1 1 2 1 1 2h2v1-1l1 1v1h1v1h-1v1l1-1h1l1 1v-3h-1v1h-1v-3c0-1 0-2 1-1v1h1v-1h-1v-1l1-1v1h1v11-1l-1-1h-2v1h2v1h1v2Zm-8-12ZM68 73v1-1Zm264 182-1 1 1-1Zm-24 23-1 1-1 1h1l1-1v-1Zm-8-7v-2h-1v-1h1v-1s-1 0 0 0h-1l-1 1s0-1 0 0h-1v-1l-1-1-1 1 1 1v1h1v-1h1v1h-1c-1 1 1 1 1 1v1c0-1-1 0 0 0h1l1 1v-1Zm-4 3v1h1v1l1-1-1-1v-2 2h-1Zm1-4v1-1Zm-1 4Zm1 5-1 1h1l1-1h-1Zm9-3-2-1v2l1 1v-1h1v-1Zm-6 4h2-2Zm5-1v-1l-1 1-1-1h-2l1 1 1 1h-1 3v-1Zm-6-3h-1v1h-2 2l1 1h-1 1v-2Zm-4 2v1h-1v-1h-1v2l2-1h1l-1-1Zm4-5v1l1 1v-1l-1-1ZM82 83h1-1c1 2 2 1 1 0h-1Zm1-3-1 1v1h1v-2Zm-1 7v-1 1Zm-1-4v-1h-3l1 1h2Zm-2 4c0 2 2 1 1 0h-1Zm6-10-1-1v1h-3l1 1h1v1h1v-1l1 1v-2Zm-3 11-1 1 1 1 1-1-1-1Zm5-12-1 1 1-1ZM64 98h-2l-1-1v1h-1v1h5v-1h-1Zm15-7h-2l1 1h2l-1-1Zm-6-1h-1v1c-1 1 0 1 1 1v-2Zm-5 9h-1v1h-1v1h2l-1-1h1v-1h2v-1l-2 1Zm3-3h-2l1 1h1v-1h2v-1c-1-1-2 0-2 1Zm7 1-1-1v2h1v-1Zm-13-2h1v1h1l1-1-1-1-1-1h1-1v1h-3l-1-1-1 1h1l1 1v1h1l1 1v-2Zm3 8-1 1h1v-1Zm7-9v1l1-1h-1Zm1-2h-1l-1 1h2v-1Zm13-12v-1h-1v-1h2v-1l-2 1h-1v2h2Zm-15 8v-2l-1 1-1 1h2Zm1 11h-1v2h1v-2Zm15-31Zm249 165-1-1v2l1-1Zm-5 1v2l2-1-1-1h-1Zm-1-4v1h-1v1h2v-1l-1-1Zm2-1 1 1c1-1 0-2-1-1 1 0 0 0 0 0ZM90 80h-1c-1 1 1 2 1 0Zm246 148h1v1l1 1 1-1h-1l-1-1h-1Zm-2-3v2h1v-2h-1Zm6 8v-1 1Zm-1-10h-1v1h1v-1Zm-2 1c-1-1-1 0-1 1l1-1Zm-1 9v-1s1 0 0 0v-1l-1 1h-1l-1 1h1v1l1-1h1ZM91 68l-2-1 1 1h2-1Zm4 8c-1-1-2 0-1 1l1-1Zm240 147v1-1ZM89 84h2-2Zm6-7h-1v2h1v-2Zm182 199c1 1 2 0 1-1l-1 1Zm3-4h-1v1a1 1 0 0 0 1 0h1v-1h-1Zm0-2c1 1 2 0 1-1l-1 1Zm-9 10-2-1 1 1h1Zm62-53-1 1v1-1 1h1v-2Zm-23 27-1-1 1 1Zm-9-7c0-1-2 0-1 1l1-1Zm1 4h-1 1Zm-4 13h-2v1h2v1h1v-1l-1-1Zm3-10-1 1c1 1 2-1 1-1Zm-4 5v-1 1Zm0-8c0-1-2 0-1 1l1-1Zm4 9h-1l1 1v-1Zm-3 3 1-1h-1v1Zm-2-9v1h1v1l1-1v2l1-1-1-1v-1h-2Zm14-16-1 1c1 1 2 0 1-1Zm-8 25h1-1Zm0 1h-1 1Zm0-3 1 1a1 1 0 0 1-1 1h1l1 1v1h-3v1l-1-1 1-1v-1h1v-2Zm5-13h1-1Zm-13 11h1v1h-1 2v-1h-1l1-1-1-1-1 1v1Zm16-11h2-2Zm-1-6v-1h-1l1 1Zm-6 17h1s1 1 0 0h2v-1h-2v-2h-1v3Zm5-17h-2 2Zm-3 12v-1l1-1v-1l-1 1-1 1v1h1Zm2-11h-2 2ZM90 72v-1 1Zm6 0c1 2 2 0 2-1l-2 1Zm1-3c0 2 2 1 1 0 0-1 0-1 0 0h-1Zm242 152v1h1v-1h-1ZM97 67h-1 1Zm-11 3h4l-1-1h-2l-1 1Zm1 3-1 1 1-1Zm8-5v-1h-1l1 1Zm192 192-2 1c1 1 2 0 2-1ZM88 73l1 1v-2h-2l1 1Zm205 188Zm-1 4v-2 2Zm2 4v-1l-1 1h-1v1c1 0 2 0 1-1h1Zm18-37v1-1l-1 1 1-1Zm-20 37Zm-2 2-1 1 1 1 1-1c0 1 0 0 0 0l-1-1Zm0-1c-1 0 0 0 0 0l1-1h-2l1 1Zm4-8v-1h-1v1h1Zm1 10v-1h-1v2c-1-1-1 1-1 1l1-1 1-1Zm-7-5v-1l-1 2s2 1 1-1Zm5-1c0-1 0 0 0 0Zm46-48v-1 1Zm-29 37h1v2-2c1-1-1-2-1 0Zm-3 9s0-2-1-1c1-1-1-2-1-1l1 1v1h-1 1v2l1-1-1-1h1Zm-1-4h1-1Zm6 0v1c0 1 2 0 1-1h-1Zm-7 7Zm3-8v-3c0 1 0 0 0 0v-1h-1l-1 1 1 1v1c-1 1 1 2 1 1Zm-4 9 1 1v-2c1-1 0-2-1-2l1 2-1 1Zm3-7c-1 1 0 1 1 1l-1-1Zm6-5h-1 1Zm-7-3h1v1h1c1 0 0-2-1-1 0-2-1-1-1 0Zm6 5 1-1c-1 0-2 0-1 1Zm-8 13 1-1v-1h-1c0-1 0 0 0 0h-1v1l1 1Zm1-26 2 1-2-1Zm-3 31h1v-1h-1v1Zm7-27v2h-1l1 1 1-1-1-1v-1h1v-1h-1v1Zm3 3c-1 1 0 2 1 1v-1h1v-1h-2 1l-1 1Zm-1-3c-1 1 1 2 1 1l-1-1Zm1-2h1l-1-1c2 0 0-2 0-1v2Zm1 1c0-1-2 0-1 1h2c1 1 2 0 2-1l1 1v-1h-1c0-1-1 0 0 0h-2v-1l-1 1Zm4-10v1h1v-1h1v1l1-1v-1h-2v1-1l-1-1v2Zm7 5s-2 0-1 1l1-1Zm-3-12c-1-1-2 0-1 1 0 1 2 0 1-1Zm-1 3v1-1Zm-4 8v2l1 1v-1l-1-1 1-1h-1Zm0 3-1 1 1-1Zm-3-2v1l1-1v-1c-1 0-2 0-1 1Zm2-1 1-1c-1-1-2 1-1 1Zm-4-8 1 1 1-1v1l-2-1Zm-6 37-1 1c1 1 3 0 1-1Zm0 4v-1 1Zm-1-12v1-1Zm1-2 1 1v-1h-1Zm1 8v1h1-1v-1Zm16-23v-1h-1l-1 1v1l1-1h1Zm-12 20 1-1v-1l-1 1h-1l-1-1 1 1 1 1Zm7-14v-1l1-1h-2v2h1Zm2-7v1h1v-2l1-1-1 1h-2v1h-1v1h1c-1-1-2 0-1 1l1-1h1v-1Zm-8 19v-1 1Zm-1-1Zm0-5Zm2 6h-1l-1-1v1h-1v-1h-2l2-1v-4h1v-1l1 1h-1v1l1 1v1l-1 1h1l1 1v1Zm2-7h-1v1l1-1Zm9-10 1-1-1 1Zm-2-8h1l1 1v-1s0 1 0 0h1v-1 1h1v1h1l-1-2h1l-1-1h-1l-1 1v-1h-1v1h-1v1Zm0-11 1 1h2v-1h-1l-1-1-1 1Zm5 20h-2c0 1 0 2 1 1h1v1h1v1h1l1-1 1-1h1v-2h1v1h1v-1l-1-1h1v-1l-1-1-1 2h-1v1l-1 1s1 0 0 0l-1 1h-1v-2l-1-1v2Zm-4-16v1h1v-2l-1 1Zm7 14Zm-5-10Zm-1-1h-1v1h2l-1-1Zm-2 6v-1h-1l-1-1v2-1l1 1v1h-2 7l1-1h2v1l1-1h-1v-1h-1l-1 1v-1h-1v1h-1 1l-1 1v-1h-1v-1h-1v1h-1Zm-2 17h-1v2h2l-1-1v-1Zm3-5h-1l1 1h1v-1l-1-1v1Zm7-6v-1 1Zm-12 14-1 1 1 1 1-1v-1h-1Zm13-16Zm-5 7h2l-1-1v-2h-2v2h1s0 1 0 0v1Zm-3-3v-1l-1 1v1h1v-1Zm1-1v3h-1l-1 1h-1v2l-1-1v-1h1v-1h-1l1-1v-2l1-1h2l1 1h-1Zm-6 7v-2c1 1 2-1 1-1-1-1-2 0-1 1h-1v3-1l-1-1c1 0 0-2-1-1l-1 1h1v2h1v1h2v-2Zm12-10v1h1v-1h-1Zm3-22 2 1c0-2-2-2-2-1Zm3-4c-1-1-2 0-1 1l1-1Zm-4 3-1 1c1 1 2 0 1-1Zm1-2v1h1v-1h-1v-1c-1-1-1 0-1 1h1Zm-8 12c1 1 2 0 1-1l-1 1Zm13-14h1-1v-1 1ZM87 68c-1-1-2 0-1 1l1-1Zm248 148 1 1h1l-1-1-1-1v1Zm2 5v1h2l-1-1h-1Zm-11 1 1-1h-1v1Zm0 6 1-1-1 1Zm1 5-2 1c1 1 2 0 2-1Zm0 4 1 1h1v-1h-1c0-1 0 0 0 0h-1Zm1 2v-1 1Zm-1-3 1-1v-1l1 2 1 1 1 1c-1 0 0 0 0 0h-2l1 1c1-1 2 0 2 1h2v-1l1 1h1v1h1v1h-1v1h-1l-1 1v-1l1-1v-1h-3l-1-1h-1l-2-1v1l-1-1v-1h-1l1-1v-1Zm0-6v-2l-1 1v1h1Zm2 0c1 0 0-2-1-1l1 1-1 1c1 1 2 0 1-1Zm1-5v1-1Zm-2 8v1l1-1v-1h-1l-1 1h1ZM85 73v-1h1-1v1ZM61 92Zm12-17Zm-29 29Zm40-34h-1v1h1v-1Zm0 5v-1 1Zm-3-1-1 1c1 1 2 0 1-1Zm1-5-1 1c1 1 1 0 1-1Zm-21 3-1 1 1-1Zm16-3h-1 1Zm-3-1h1v-1h-1v1Zm7 1v-1l2 1h1v-1h-2l-1-1h-1v1l1 1Zm3 7-1-1v-2l-1-1-1-1v-1l-1 1 1 1-1-1 1 1h1v2c-1 1 0 1 1 1l1 1ZM53 86l-1 1 1-1Zm-2 2 1-1-1 1Zm27-20h2l-2-1v1Zm-3 1v1-1Zm228 197h-1v1l1 1v-2Zm6 2h-1l-1-1v-1 1c-2-1-2 1-1 1v1h1v1h-2v1h1v1h1v1h1v-2h1v-1h-1v-2h1Zm-7-1-1 1v1c1 0 2-1 1-2Zm12-3h-1c-1-1-2 0-1 1v1h1-1 1v1-2h1s1 0 0 0v-1Zm-12 7v1l1-1v-2h-1l-1 1v1h1Zm0 3c-1 0-1-1 0 0"/><g clip-path="url(#c)"><path fill="#421900" d="m267 291 1-1h-1v-1l-1 1h1v1Zm-2 0 1 1v-1h-1Zm2 3 1-1v-1h-1v2Zm0 2h1v1-1h-1ZM28 87c-1 0 0 0 0 0Zm0-2-1-1 1 1Zm-1 2h-1 1Zm-1 1-1-1v1h1Zm-6 3 1 1v1h1v-1h1v-1 1h-1l-2-1Zm1 3v-1l-1 1h1Zm1 1h-1v1h-1v1l1 1v-2h1v-1Zm-2 0v-1 1Zm0-9v-1 1Zm0 3Zm0-3Zm4 7v1l1-1h-1Zm-5 0v-1h-1v2l-1-1v1h1l1 1v-1h-1l1-1Zm0 4s0 1 0 0Zm-1 0Zm0 0h-1 1Zm-1-6Zm0 0s1 0 0 0Zm2-1v1-1c0 1 0 0 0 0Zm-2-3h2l-1-1h-1v1Zm0 3h-1 1Zm-1 7Zm0-10-1-1 1 1Zm0 9h-1 1Zm-1-7Zm0 13v-1 1Zm2 0h1-1Zm1 2h1v-1l-1 1Zm1 0 1 1v-1h-1Zm1 1h-1 1Zm1-1Zm-4 5h-1 1Zm-3-2Zm0 4c0 1 0 0 0 0Zm26-23 1 1h-1v1s1 0 0 0v1l-1-1v-2 1l-1 1v-1l-1-1v1h-1v-2h1l-1-1-1 1h1v1h-1l-1 1-1-1h-1v1h-3v-1h-3l1 1h-2v-3h-2c-1 1-1 0-1-1l-1 1v1h3l-1 1v1l1 1v2l1-1-1-1v-1l1 1h1l1-1h1s1 0 0 0h1s0 1 0 0v2h1l-1 1v-1 1h-3v1c1-1 2 0 2 1h-4v3h-2 1l1 1-1 1-1-1h-1v1l-1 1-1-1h-1v-1 2l-1-1h-1c0 1-2 0 0-1h-2l1-1-1-1v1l-1 1h1v1l1 1v1h1l1-1 1 1 1 1h1l-1 1h2l1 1-1 2-1 1h-1l-1 1v1h-1v1h-1v1l-1 1h-1v1h-1v-2l1-1-1-1v1-5 1-1l1-1h1l1 1h-1l-1 1v1l1-1h1v1h-1l1 1h1v-1h1v-1h1v-1s0 1 0 0l-2 1v-1h1v-1l-1-1h-1v-1 1l-1 1h-1l-1-1v-2h1-1v-6c0-1 0 0 0 0V84h12v2-2h5v1h1l1 1h-3l1 1h-1l1 1c-1-1 1-2 1-1h2v-1l1-1v1h1v-1h-1v-1h3l-1 1h1v1h1v1l-1 1 1-1h1v1h1Zm8 1h-1v1l1-1Zm221 197h-2v1h1l1-1ZM45 88v2c-1-1-2 0-2 1h2l1-1v-2h-1Zm-2 2h-1v-1h-1v2h1c1 1 2-1 1-1Zm223 198v-1c1 0 0-1 0 0v-1h1l-1-1h-1l-1 1v1h1l1 1ZM44 85c0-1 0-1 0 0Zm-3 3h-1v-1l-1-1h1v-1h1v-1h1v1-1h4l-1 1h-3l-1 1v1h1v1l1 1h-2v-1Zm4-1c0-1-1-2-2-1h-1c-1 1 1 2 2 1h1Zm2-2-2 1v1h1c0 1 0 1 0 0h1l-1-1 1-1Zm231 203 1 1v-1h-1Zm-1-2v-1h-2 1v2h2l-1-1Zm4 4v1-1Zm0-4v1s-1 0 0 0h1l-1-1Zm0-1h1l-1-1-1 1v-1l-1 1v-1l-1-1v3h1v-1 1l1-1h1Zm-11-2-1 1h1v-1c0 1 0 0 0 0Zm0 10h-1v1l1 1v-2Zm-1-10v-1 1Zm1-1v1h-1v1h-1v-1c-1 0-1 0 0 0v-1h1l1-1h1v-1 1c1 0 0 0 0 0v1h-1Zm5 10v2-2Zm-4-6h1l2-1h-1v-1h-1v-1h-1v1h1l-1 1-1 1h1v2h1v-1h1v-1h-2Zm4 1h-1l1 1 1-1h-1Zm0 3h-1v1-1h1Zm4-3h1v-1l-1 1ZM70 60v-1h-1v-1h-2l-2 1v1h1l1-1h1v1h1v1h1v-1Zm-1 4h-1v-3l-1-1-1 1h1v1l-1-1h-1v1h-1v1h2v1h1l1 1h1v-1Zm-1-1Zm3 4h1v-1l-1 1Zm-2 0h-1v-1h-4v1h5Zm6-3v1l1 1c1 0 0-3-1-2Zm192 216-2 1h1v1h1v-1c0 1 0 0 0 0h1l-1-1ZM62 67Zm2 0h-3 1v-2l1 1v1h1ZM48 87l1-1c-1 0-2 0-1 1Zm219 198h1v-1h-1l-1-1-1 1 1 1h1ZM75 56h1-1Zm-1 1 1-1c-1-2 2-2 1-1l1 1h-2l-1 1Zm2 6h-1v1l1-1Zm-2-3v-1h-1l-1-1v-1h-1l-1 1h1v3l1-1v-1l1 1v1h-1v1c-1 0 0 2 1 1l1 1-1-1v-1l1-1v-1Zm190 231h1-1ZM52 87Zm-1 0-1 1 1-1Zm0-4v-1h-2l1-1h-1 1-2v2l1 1v-1l1 1v-1h1Zm3 2h-1v1l1-2v1Zm-4-1h2-2Zm11-17-1 1v-1l-1-1-1 1v1h1s0 1 0 0v1s-1 0 0 0v1h1v1s1 0 0 0v-2h1v-2Zm0-2h1l-1-1v1h-1v-1h-1v2h2v-1Zm-3 12v1h1v-1h-1Zm2-6-1 1 1 1 1-2h-1Zm-3 9v1h-1l-1-1h-2v4l1-1 1-2 1 1 2-3-1 1Zm3-7-1 1-1-1-1 1 1 1v2-2h2v-2Zm-28 30Zm-4 19 1 1 1-1h-2Zm1-9h1v-1h-1v-1h-1v1l1 1Zm-2 1-1-1-1 1 1 1h1v-1Zm-1 3h-2v1h-1l1 1 1-1h1l1-1h-1Zm2-8-1 1 1-1Zm1 6h1v-1l-1 1Zm6-6v-1 1Zm-5 1v-2l-1 1v2h1v-1Zm5 2v-2 2Zm-3 6h-1l-1 1h1l1 1v-2Zm88 124-3 2v2l1 1 2-2v-3Zm40 2-1 1h-19l-1 1-3 1-2-2v-1l-1-2-1 3c0 1-1 4-3 4h-2l-1-5v-2l-1-1h-2l-2 4c0 3-2 4-3 4l-2-1-1-5 4-3 2-1c0-5-1-9-4-13l-2-2c-1-1-3 1-3 1-3 4-5 9-5 16s1 15 3 21a1 1 0 0 1-1 2l-1-1c-2-7-3-14-3-22 0-7 2-13 5-17 2-2 4-3 6-2l3 2c3 5 4 10 4 15h3l2 2v3l1 3 1-3 2-3 2-1 2 3v2l1-1 2-1h20l1 1ZM33 103h-1v1l1-1Zm290 189h1-1Zm-1 0h-1v1l-1-1h1c-2 0-1-2 0-1l1-1h1v1l1-1v-1 2l1 1v1h-1v-1l-1 2-1-1v-1c0 1 0 0 0 0ZM25 110l1-1-1 1h-1v1h1v-1Zm5-7 1 1c1 0 0-2-1-1Zm1-2h-1v1h1v-1Zm-1 4 1 1-1-1Zm1 6h1v-1l-1-1v1l-1 1h1Zm-11-3h1l-1 1h1v1h2l1-1h-2l-1-1h-1Zm4 8h2c1-1 0-1-1-1l-1-1v-1 1l-1 1s0 2 1 1Zm0 5c1 1 2 0 1-1-1 0-2 0-1 1Zm-2-15v1l1 1v-1s0-1 0 0l-1-1Zm4 7v-1 1Zm1-5 1 1h1v-2h-1l-1 1c1-1 0-1-1-1v1h1Zm-2-2-1 1c1 1 2 0 1-1Zm292 192Zm-3-3v1h-1v1h2v-2h-1Zm-1-4 1-1h-1v-1h-1l-2 1h2-1 1l1 1Zm4-4v1-1Zm-1 8 1-1c-1-1-2 1-1 1Zm-34-8v1-1Zm28 5v1-1Zm-27 0c1 0 2 0 1-1l-1 1Zm0 0-1 1c1 1 2 0 1-1Zm19-110H77a1 1 0 1 0 0 2h225a1 1 0 1 0 0-2Zm0-27H77a1 1 0 1 0 0 2h225a1 1 0 1 0 0-2Zm6 139v1-1Zm-24-5v-1 1ZM35 95v-2 2Zm-1 12h-1 1Zm1-1v1h-3 2l1-1v1-1Zm-3-8h-1v1l1 1-1-1c0 1 0 0 0 0h1v-1Zm3 1v1l-1 1h-1c0 1-2 0-1-1l-1 1h-1v-2l1-1-1-1h1l-1-1v2l-1 1v1h-3l-1 1c0-1 0 0 0 0l-2 1v-1l-1-1v-1h2v-1h1l1 1s-1 0 0 0h1l1 1v-2h-1c0 1-2 0-1-1l-1 1v-2h2l1 1v-2h1s1 0 0 0h1v-1h-1v-1l1-1v2h1c0-1 2 0 1 1h-2 1v1h1v2h1c-1-1 1-2 1-1l-1 1v1l1 1 1-1Zm-1 3-1 1 1-1Zm0 3v-1 1Zm286 193v-1l-1 1h1ZM38 90h-1l-1-1-1 1 1 1h-1l1 1h2v-2Zm-7 17s0-1 0 0c0-1 0 0 0 0h-1l1 1v-1Zm287 188h1c0 1 0 0 0 0h-1ZM39 92v1l1-1h-1Zm280 202v-1 1ZM36 92v1a31 31 0 0 0 1 0l-1-1Zm2 0-1 1h1v-1Zm-5-1Zm2 1v4h-1v-2h-1l-1-1h2v-1l-1 1-1-1h-1v-2h3l1 1v1Zm207 200 1-1h-1v1Zm-6-5h1v-1s1 0 0 0h-1s1 0 0 0v1Zm4 6v-1h-2 1v1h1Zm-1-7h-1 1Zm-1 2h-1l1 1v-1Zm1 0v1-1Zm9 1v1-1Zm0-1v-1c1 1 1 0 0 0h-1v1h1Zm-3 0-1 1 1-1Zm-2 0v-1l-1-1v1-1h-2v1h1v1h1v1s0 1 0 0h1v-1Zm0 3 1-1h-1v1Zm1-4h-1 1Zm-13 9 1 1v-1h-1Zm-5-5c-1 0 0 2 1 1v-1h-1Zm4-4-1-1v-1 1-1h-1v1l1 1h1Zm-2 4v-1 1-1 2h1v-1h-1Zm10-1h-2l1 1 1-1Zm-14-2h-1 1Zm2 1v-1h-1v2-1h1Zm10-3h-2v1h1-1l1 1v-1h1v-1Zm-1 0 1-1h-2l1 1Zm-1 6c1 1 2 0 1-1l-1 1Zm15-4h-1l1 1v-1Zm-15 3h-1 1l-1 1 1-1Zm-3-1v-1l-1 1c0-1 0 0 0 0h1v1-1Zm29 2a1 1 0 0 0 0-1h-1v1h1Zm0-8 1 1h1l1 1v-1l-1-1h-2Zm2 3-1-1-1-1h-1s0 1 0 0v2l-1 1 1-1 1-1c0 1 1 0 0 0v1h2Zm-4 5h-2 1l1 1v-1Zm2-2-1-1v1h1Zm-1 3v1h-1l1 1v-2Zm-35-1-1-1h1-1v1h1Zm55-11h-2 2Zm-2 1h-1l-1 1-1 1h1l1-1v1l1-1-1-1h1Zm-28 7h2-2Zm13 2v1-1Zm0-2s1 0 0 0v-1 1Zm2-6Zm0 2v-1l-1-1h-1a46 46 0 0 0 2-1l1 1 1-1-1 1-1 1v1Zm12-7h-1s0 2 1 1v1l-1 1 1-1h1l-1-1h1-1v-1Zm-21 9-1 1 1-1Zm-1 1h-1 1Zm0-2h-2l1 1h1v-1Zm-2 2v-1 1Zm-1-2-2 1h2v-1Zm5 1v-1 1Zm0-1 1-1h-1v1Zm-1 2c0 2 2 0 1 0h-1Zm3 1c-1-1-1 1-1 1l1-1Zm-4 2v1s2 0 1-1h-1Zm3 0h1l-1-1h-3l1 1h2Zm-5-2h1-1Zm-37-10Zm57 0h-1v-1l-1 1h1v1l1-1Zm1-4h-1l1 1 1-1-1-1v1Zm-2 2h2v-1l-1-1-1 2Zm2 6v-2l-1 1 1 1Zm-57-2Zm55-4-4 3 1-1h1v2l1-1v-1h-1 1v-1h1v-1Zm2 1-1 1 1-1Zm-42 7 1 1v-1h-1Zm-1-2v1h2v1c1 0 0 0 0 0v1h1-1v1h-2v-1l1-1h-1v-1l-1-1-1-1 2 1Zm-12-7h-1 1Zm-2 3Zm0 1h1-1Zm1-1Zm0 1Zm0 0v1-1Zm-2 0v-1l1-1v1l1-2h2-1v1h1v1h-2 1v1h3v3h-1v1-3h-1v1h-1 1v1h-1v1h1l1 1c0-1 1 0 0 0 0 1-1 1 0 0h-1 1-2l-1-1h-1 1v-2c0 1 0 0 0 0l-1-1-1-1Zm4-5-1 1h1v1h1v1l-1 1h2v-1c1 0 1 0 0 0v-1h-1v-1l-1-1Zm4 3h-1l1 1-1 1h2l1 1-1-1v2s0-1 0 0h1l1-1v-1l-2-1-1-1Zm45 4v-1 1Zm-61 11v-1h1l-1 1Zm0 0h-1v1l1 1v-2Zm-18-85H77a1 1 0 1 0 0 2h112a1 1 0 0 0 0-2Zm16 84v1-1Zm3-2v1h1v-1h-1Zm5-2Zm1 1h-2v-1h-1v-1s-1 0 0 0h-1l-1 1h1-1v-1l1-1v-1h1v1h1-1l1 1v1h2v-1h1v1h-1 1s0 1 0 0c1 1 0 2-1 1Zm-47-46h-2a1 1 0 0 0 0 2h2a1 1 0 0 0 0-2Zm46 38v1l-1 1v1l1-1h2v-1h-1 1l1-1h-1 1l-2-1-1 1Zm-1 9v-1 1Zm0 1h-1l1 1v-1Zm10 2v1h-1v1h1v-2Zm-2-11Zm13 4v1h1v-1 1-1h-1c0-1 0 0 0 0Zm-21-1h1v-1h-1v1Zm63-3v-1h-1c1 0 0 0 0 0v1h-1 2Zm-59 7v-1 1Zm2-1v-1 1Zm-4 5-1 1h2l-1-1Zm6-2-1-1v-2h-2v1h1v1l-1-1v1s0 1 0 0l1 1h2Zm1-1v1h1l-1-1Zm-1 2s0 1 0 0h1-1Zm-3-4Zm0 1h-1 1Zm2-14h1l-1-1v1Zm-4 16 1-1c-1-1-1 0-1 1Zm11-7h-1v2h1v-1h1l-1-1Zm7 4-1 1h1v1h1v-1h-1v-1Zm-11 2v1-1Zm52-13v1-1s1 0 0 0Zm1 0h1l-1 1h-1v2-1l-1-1h1l-1-1v-1h1l1 1Zm-54 12h1v-1 1h-1Zm7-5v-1l-1 1h1Zm0-2v3h-1v-1l-1-1v-1h2Zm0 5v-1 1Zm-7-4h1-1Zm0-3h1v-1l-1 1Zm1-3Zm1 10h-2l1 1 1-1Zm0-1 1 1 1-1h-1l-1-1h-2v1h2Zm0-5Zm-1 1h-1 1l1 1v1-1l1-1h-2Zm-6 4-1 1c1 1 2 0 1-1Zm116-5h1v-1h-2l1 1Zm2-3 1 1h1v-1l-1-1v1h-1Zm-3 9 1 1h2l-1-1-1-1a3 3 0 0 0 1-1v-1h1-1l1 1h1v-2s0-1 0 0l-1-1c-1-1-2 1-1 1l-1 1-1 1h1l-1 1v1Zm0 6h1v-1h-1v1c-1 0 0 0 0 0v2-2Zm7-2c0 1 2 0 1-1-1 0-2 0-1 1Zm-1-18-1 1 1-1Zm-2 16h1-1l-1 1 1-1Zm-3 1c1 1 1-1 1-1l-1 1Zm7 1c0 2 2 1 1 0h-1Zm-5 1v-2 2Zm0 1-1-1h-1l1 1h1Zm15-3-1-1 1 1Zm-8-14v1h1l-1-1Zm-1-3h1v-1h-1v1Zm1 1h1l1-1 1-1h-1l-1 1h-1v1Zm1 3Zm-2 1v1-1Zm2 14v1h2l-1-1h-1Zm3-7v1-1Zm-7-9v1c-1-1-1 0 0 0h1l-1-1Zm7 12 2-2-2 1h1l-1 1Zm-6-7h2v-1l1 2v-3l1 1h2l-1-1h-3v1h-1s0-1 0 0l-1 1Zm-1 6v-3l-1 1 1 1-1 1v1h2v-1h1v-1h-1l-1 1Zm1-1Zm1 2h1l1 1v-1h1l-1-1 1-1h-1v2h-1s-1 0 0 0h-1Zm1-2Zm1 4h1-1Zm-2-3v1-1Zm6-3 1-1h-1v1Zm-2 5v-1 1Zm2 1Zm-7-8h1l-1 1 1 1-1 1h3v-1c0 1 0 0 0 0h-1l1-1h-1 1l-1-1h1v-1h2v1h4l-1 1c1 0 0 0 0 0l1 1 1 1h1l-1 1v-1l-1 1-1 1v-2h-1l-1-1-2-1h2-1v-1h-1l-1 1 1 1v1c1-1 2 0 1 1v1l1 1v1h2l1 1v2h-1v-1h-1l-1 1h-1v-1h-1v1l-1-1-1 1v-1h1l-1-1v-1l-1 1v-1h-1l-1 1h-1s0-1 0 0l-1 1v-4h-2v-1h2v-3h1v-1c0-1-1-2 1-2v-1 1l1 1-1 1h1Zm-7-8h2l1 1 1-1h-2l-1-1h-1v1Zm-6 12 1-2c-1 0-2 1-1 2Zm-5-2c-1-1-1 0-1 1l1-1Zm2-5-2 1 2-1Zm2 4-1-1h-1v1h2Zm0 3-1 1v1l1-1h1v-2h-1v1Zm-3 2v1-1ZM88 50v-1h1-2l-1 1h2Zm1 10v1h1v-1h-1Zm7-10c-1-1-2 0-1 1l1-1Zm221 234h-1 1ZM87 56c1 0 2 0 1-1l-1 1Zm250 215c1-1 0-2-1-1l1 1Zm7-2-1 2c1 1 2-1 1-2Zm-12 9v-1h1-2l1 1Zm-4 9v-2l-1 1v1h1Zm10-14v2-2Zm-1-2h-1v1l1 1c1 0 2 0 1-1h-1v-1Zm-1-5-1 1c1 0 2 0 1-1Zm-9 28v-2 2Zm0-5h-1c0-1 0 0 0 0v1l1-1Zm0-7 1 1v1-3c-1-1-2 0-1 1Zm3 10-1-1-1 1v1h2v-1h1v-2h-1v2Zm1-16-1 1c0 1 2 0 1-1Zm-3 1h-1 1ZM93 53l1-1-1-1-1 1 1 1Zm254 218h1l1-1h-1v-1l-1 2Zm6 10c1 0 2-1 1-2 0-1-2 1-1 2Zm-4-13-1 1h1v1l1-1v-1h-1Zm-5-1v-1 1c0 1 0 1 0 0Zm6 0c1 0 0 0 0 0h-1v1h1v-1Zm-5 5 1 1c1-1 0-1-1-1Zm-1 1c0 2 2 2 1 0h-1Zm3-9h-1l-1 1h1l1 1v-2Zm0 5c-1-1-2 0-1 1l-1 1v1l1-1v-1l1-1Zm0-1v-1l-1 1h1Zm-2 0-1 1c1 1 2 0 1-1Zm5 4h-2v1h1c-1 1 0 1 1 1v-2Zm-7 6v-1 1Zm16-12Zm-3 3-1-1v1h1Zm6-4v1-1l-1-1v1h-1v-2h-2l1 1v1c1-1 2 0 1 1l1 1 1-1v1-1 3h-1c1 1 0 1-1 1v-3l-1 1h-1 1v3l-1-1v-1h-2l-1 1h-1v-1l-1 1-1 1h-1v-1h-1v-1h1l1 1v-1h1v-1h1v-1l1 1h2c-1-1 1-2 1-1v-2h-1l1-1v-1h-1v1h-3v-1 1-2h-1v-1h1l-1-1v-1l2 1v2l1 1 1-1h1v-1h3l-1 1 1 1h1v-3h-1 1v-2 7Zm-1 15h1v-6h-1v1l1 1-1 1h1v2h-1v1Zm0-9h-1v1l1 1 1-1v-1h-1Zm1 0v-1s0-1 0 0v1Zm-1 26Zm0 0h-1 1Zm-1-13h1v-1h-1v-2l-1 1h-1v1l1-1v1h1v1Zm0 2v1c0-1 0-1 0 0v-1Zm0 4c1 0 0 0 0 0Zm0 5v1-1Zm-1-2h1-1Zm0-4v-1h-1l1 1Zm-1 2h-2l-1 1v2l1-1h-1 1v-1h1l-1 1h1l1-1v-1Zm-3 4Zm2-7Zm-3 5Zm-1 2Zm0-3-1-1v1h1Zm-2 1v1h1l-1-1Zm0-3 1-1h1v-1h-1v1l-1 1Zm2 2Zm-3 4v1-1Zm-2-2h-1v1l1-1Zm-1 2v-1h-1v2h1v-1Zm-2-1h-1 1Zm-1 0h-1 1v1-1Zm18-11Zm0 14v-1h-1l1 1h-8v-1l1-1-1 1v1h-4l-1-1 1 1h-6l-1-1h1l-1-1-1 1-1-1 1-1h1v-1l1-1h1c1 0 0 0 0 0h3l1-1v-1h1v1-2c0 1 0 0 0 0l1-1h-1v-1h1v-1h-1l-1 1v1h-1v-2h1l1-1h2l1 1v1h1l1-1-1 2v2-1l1-1h1v-1h-1v-1h-2l1-1v-1h5v-1l-1 1v-1l-1 1-1-1v-1h1l-1-1v-1l-1-1 1-2h1s-1 0 0 0v-1h1c0-1 0 0 0 0h1v-2c-1 0-1 0 0 0l-1-1 1-1h1v3l-1 1h1v2h-2v-1 1l-1 1h-1 1v1h1v-1l1 1 1-1h1l1 1v6l-1-1v1h1v11Zm-9-16Zm-9-7v-1l-1-1v1l-1 1 1 1 1-1Zm0 2 1-1c1-1 0-2-1-1v2Zm10 7h1l1-1h-2l1-1v1-1l-1-1h-1v2h1v1Zm-2 0Zm1 1v1h-1l-1-1v-1h-1l-1-1h1v-1l-1 1h-1 1l1-1v-1h3l-2 1h1l1 1v2Zm-5-5Zm-1 1v-1h-2l1-2v-1 1l1 1h3v1h-1v2l-1-1h-1Zm13-34h1v1l1 1v-2l-1-1h-1v1ZM26 101l-1 1v1l1-1h1l-1-1Zm327 156v-2l-1 1 1 1Zm2-4v1h2l-1-1-1-1v1Zm-4 15 1-1c0-1-2 0-1 1Zm3-14h1l-1-1v1Zm-9 8h1-1Zm0-5-1-1v1h1Zm12-7c0-1 0-2-1-1v1h1Zm-7 12v-1 1Zm-3-3-1 1c1 0 2 0 1-1Zm2 6h1-1l-1-1v1h1Zm8 11h1v-1l-1-1h-1l1 1-1 1h1Zm-1-9h1v-1h-2l1 1Zm1 4v-1l-1 1h-1v2l1-1v-1h1l1 1c1-1-1-2-1-1Zm-4 0v1-1Zm-1 5v-1 1Zm3 2v-1h-1v-1h-2l1 1v1h1l-1 1-1-1h-1l1-1h-1v-1h-1l-1-1v2l-1 1-1-1 1-1-1-1h1v-1l1 1 1-1h1v1h1v-2h2v1h-1v2l1-1 1-1-1-1h2l-1 2v1s0 1 0 0v1h1l-1 1Zm-1-19 1-1h-2s0 1 0 0l1 1Zm-10 5h-1v1c1 1 2 0 1-1Zm15-10h1l1-1h-2v1Zm-1 3 1-1h-2l1 1Zm2 1v2l1-1-1-1Zm2-4v-1 1Zm-3 6v-1h-1v1h1Zm3-5h-2 2Zm-10 10 1 1h-1l1 1 1-1v-1h-1l-1-1v1ZM53 79h1l-1-1v-1l-1 1 1 1Zm-1 4 1-1-1-1v2Zm5-8h-2l-1-1v3h1v-1h2v-1Zm1 2-1 1c1 1 2-1 1-1Zm-3 0-1 1 1-1Zm0-4v1l1-1v-1h-1l-1-1v2h1Zm3-8-1 1c1 1 1 0 1-1Zm-1 8-1 1c1 1 2-1 1-1Zm-1 5c1-1-1-1-1-1l1 1Zm-1 2 1-1h-1c-1-1-1 0-1 1h1Zm4-9s0-2-1-1l1 1Zm-6-2v1h1l-1-1Zm281 229-1-1-1 1h2Zm-4-1Zm2-1h-1v1c-1 0 0 0 0 0h-1v1h-2l1-1s0-1 0 0v-1h3ZM49 77h-1v1h1v-1Zm282 220v1l1-1h-1Zm4 1h1v-1l-1 1Zm-1-2h-1v-1l1-1h-2l-1 1h1v1l1 1h1v-1ZM52 69v-1h1-1v1h-1v1l1-1Zm-1 0-1-1h-2v1h2v1l1-1Zm1 4h1-1c0-1 0 0 0 0Zm-2-20v-1h-1l1 1Zm0 5h-1 1v1l1-1h-1Zm1 3Zm0-7 1 1v-1h-1Zm0-2v1h1v-1h-1Zm1-2s0 1 0 0Zm1 3h-1 1Zm0 4-1 1 1 1h1l1-1v2l-1-1-1 1h-1 3v1h2v-1h-1l-1-1v-1h1-1l1-1h-2v1h-1s0-1 0 0v-1Zm0-4Zm1-3v1-1Zm1 6h1v1h2v-1h1s0 1 0 0h-1l-1 1v-3 1h-1l-1 1Zm1-5v2l1-1-1-1v1-1Zm1 2h1v-2 1h-1v1Zm1 2v1-1Zm-1 4v-1 1Zm1 0h-1l1 1v-1Zm-4 3h-2v1l2-1Zm-2 2-1-1v1h1Zm-3 11-1 1v-2h1v1h2v-3h-2 2v-1h1-1l-1-1v1h-2V56l1-1c1 0 0 0 0 0l-1-1v1-6h1s1 0 0 0v1h1v-1h6-1l1 1v-1h9v1h-2l1 1h-4 1-1v1l1 1 1 1-1 1-1-1h-1v2c1-1 2 1 1 1h1l-1 1v1-1h-1c-1 0 0 0 0 0h-1v1c1 0 2 0 1 1h1v3l-1-1h-3v1l-1 1v-1h-1v1c1 0 0 0 0 0v1h2c-1-1 1-2 1-1 0-1 2 0 1 1h-1l-1 1-1 1-1-1-1-1h-2 1v1c-1 1-2 0-2-1v-1l-1-1v1h1v1l-1 1 1 1h3v1h1l-1 1h-1l1 1v4h-1s1 0 0 0v2h-3v-1Zm9-7h-1v-1h-1v1l-1 1h-1l1 1h1l-1 1h2v-1h1v-2Zm-1-6v1h1l-1-1Zm272 229v-3 1h-1l-1 1h1l1 1Zm8 5v-1l-2-1h1v-2l1-1c-1-1-2 0-1 1l-1 1v1l1 1 1 1Zm-10 0-1 1v1h1v-2Zm-1-2v-1l-1 2h1v-1Zm-1 2h-1v2h2l-1-1 1-1h-1ZM50 80v-1l1-1v-1h-1l-1 1 1 1h-2v2-1h2Zm-31 39-1 1c0 2 2 0 1-1Zm2 1v-1l-1-1h-1v1l1 1h1Zm-4 8h1v-1c-1-1-2 0-1 1Zm0-2 1-1h-1v1Zm5-22 1 1 1-1v1l1 1h2l1 1 1-1 1-1h-4v-2h-1l-1-1h-1l-1-1-1 1 1 1v1Zm4-1 1 1h1l1-1v-2l-1 1-2 1Zm-6 21h1-1Zm-3 0v-1h-1c-1 1 0 2 1 1Zm5-3h-1c1 2 2 1 2 0h-1Zm302 175c1-1 0-2-1-1h-2l1 1h1v-1l1 1ZM20 112h-1 1Zm3 1h-2c0 1 0 0 0 0h-1l-2 1-1-1h-1v-3l1 1 1 1v1l1-1v-1h-1v-1h1l1 1h1-1 1l1 1v1-2h2l-1 1v1Zm-2 5 1-1-1-1v2Zm-7 1 1 1 1 1 1 1h1s0-1 0 0v-1h-1v-1h-2c1-1 0-1-1-1Zm3-5-1 1 1 1 1-1h-1v-1Zm29-30Zm39-34v-1h-1l1 1ZM31 84v1h2-1 1v-1h-2Zm-17 41c0 2 2 1 1 0h-1Zm32-41h2-2Zm-33 48h1v-1c-1-1-1 0-1 1Zm0-2 1-1h-1v1Zm1-15v1h1v-1c1 0 0 0 0 0h-1l-1-1v3h2-1s0-1 0 0l-1-1 1-1Zm4 2h1v-2h-1v2Zm-4 2v1-1Zm0 3c-1-1-2 1-1 1l1-1Zm2-3h1v-1l1 1v-1h-1s-2 0-1 1Zm69-62h-1l1 1v-1Zm-3-4-1-1c-1 1 0 2 1 1Zm-21-2c0 1 0 2 1 1l-1-1Zm-12 4Zm33-3h1l1 1 1-1v-1l-1 1h-2s0 1 0 0Zm-16-3h-1 1Zm-3 15v-1l-1-1-1 1 1 1h1Zm3-8v-1 1Zm-1 0v-1h1l-1-1 1-1v2h2c1 1 0 2-1 1h-1l-1 1v-1Zm15-6v-1h1-1l-1 1h1Zm-8 6 1 1 1-1v-4h1v-1c1-1 0-1-1-1v1h-1v-1h-1v2h2-2v2-1l1 1 1 1-1 1h-1Zm-3-7h1-1Zm7 3h-1c-1 1 0 1 1 1v-1Zm-6 1h1v-1h-1v1Zm-4-4h2s0 1 0 0v2h2l-1-1h1v-1l1 1v5-1h1v2l-1 1-1-1s0 1 0 0v2h-1l-1-1v-1h1l-1-1h1v-1h1v-1l-1 1h-1v-2l-1-1v3l-1-1h-1v-2h1v-2Zm-1 5v-1h-3v1l1 1 1-1-1 1v1h-2l1 1h-1v1h1v1l1 1h-1v-1h-1v1h-1c1 0 0 0 0 0v1h4l-1-1h1v-1l-1-1h-1l1-1h2l-1-2h1v-1Zm12-4v-1h-1v1h1ZM64 65c1-1 0-2-1-1l1 1Zm13-14v1c-1 1 1 2 1 1l2-1-1-1h-1v1l-1-1Zm4 5-2-1-1-1h-1c-1 1 0 1 1 1l1 1h2Zm-4 6-1 2c1 1 2-1 1-2Zm0-2 1-2h-2v1h1v1Zm-3-10v-1h-1v1h1Zm5 13v2-2Zm5-8h1l-1-1h-1v1h1Zm256 242h-1l1-1h-1l1-1v-1l-1-1-1 1v-2l-1 1-1 1 1 1 1 1 1 1v1h2l-1-1ZM80 61v-2l-2 1h1v1h1Zm-2-1-1 1c1 1 2 0 1-1Zm2-6v-1 1Zm1 0v1c2 0 0-2 0-1Zm2 7v-1h1l1-1c-1-1-2 0-2 1h-1v1h1Zm-2-3c0 1 2 0 1-1l-1 1Zm260 237 1-1-1-1-1-1v4l1 1v-2ZM80 65l1 1 1-1-1-1-1 1Zm258 233h-1 1"/></g></svg>