<svg xmlns="http://www.w3.org/2000/svg" width="340" height="100" version="1.0" viewBox="20 17 360 117"><defs><clipPath id="a"><path d="M25.8 30.5H115v89.3H25.8Zm0 0"/></clipPath><clipPath id="b"><path d="M49 40h66v79.8H49Zm0 0"/></clipPath></defs><g clip-path="url(#a)"><path fill="#003780" d="M70.4 50.3a24.8 24.8 0 1 0 0 49.6 24.8 24.8 0 0 0 0-49.6Zm-3 36.6-13-13a.9.9 0 0 1 0-1.1l4-4c.4-.4 1-.4 1.3 0l8.1 8h.3l13-13c.3-.3.9-.3 1.2 0l4 4c.4.4.4 1 0 1.3L68.6 87c-.4.3-1 .3-1.3 0Zm47.4-11.1c.2-.5.2-1 0-1.4l-3.2-7.4v-8.2c0-.5-.1-1-.5-1.3l-5.8-5.7-3-7.6c-.2-.5-.6-.8-1-1l-7.6-3-5.7-5.9c-.3-.3-.8-.5-1.3-.5l-8 .1h-.2l-7.4-3.2c-.5-.2-1-.2-1.4 0L62.2 34H54c-.5-.1-1 .1-1.3.4l-5.6 5.9-7.6 3c-.5.2-.8.5-1 1l-3 7.5v.1l-5.9 5.7c-.3.3-.5.8-.5 1.3l.1 8v.2L26 74.4c-.2.4-.2 1 0 1.4l3.2 7.4v.1l-.1 8.1c0 .5.2 1 .5 1.3l5.9 5.7 3 7.6c.2.4.5.8 1 1l7.5 3h.1l5.6 5.8c.4.4.8.6 1.3.6l8.1-.2h.1l8 3.5h.3l8-3.4h8.2c.5 0 1-.1 1.3-.4l5.6-5.9h.1l7.6-3c.4-.2.8-.6 1-1l3-7.5v-.1l5.8-5.7c.4-.3.6-.8.6-1.3l-.2-8v-.2Zm-44.4 34a34.7 34.7 0 1 1 0-69.4 34.7 34.7 0 0 1 0 69.4Zm0 0"/></g><g clip-path="url(#b)"><path d="M114.8 75.8c.2-.5.2-1 0-1.4l-3.2-7.4v-8.2c0-.5-.1-1-.5-1.3l-5.8-5.7-3-7.6c-.2-.5-.6-.8-1-1l-7-2.8c.8.9 1.4 1.8 1.8 3l1.3 3a8.5 8.5 0 0 0 2 3l2.4 2.4c1.7 1.7 2.7 4 2.6 6.3v3.4c0 1.2.2 2.4.7 3.5l1.3 3.1c1 2.2 1 4.6 0 6.8l-1.3 3.1-.1.4-.6 3.9v2.6c0 2.4-.9 4.6-2.6 6.3l-1.4 1.3c-1 1.7-2 3.3-3.3 4.8l-1 2.4c-.8 2.2-2.5 3.9-4.7 4.8l-3.2 1.2a8.5 8.5 0 0 0-3 2l-2.3 2.4a8.5 8.5 0 0 1-6.3 2.6h-3.4c-1.2 0-2.4.2-3.5.7l-6.4 2.7h-.2l-6.4-2.7a8.5 8.5 0 0 0-3.5-.7h-3.4l3 3.1c.3.4.7.6 1.2.6l8.1-.2h.1l8 3.5h.3l8-3.4h8.2c.5 0 1-.1 1.3-.5l5.6-5.8h.1l7.6-3c.4-.2.8-.6 1-1l3-7.5v-.1l5.8-5.7c.4-.3.6-.8.6-1.3l-.2-8v-.2Zm0 0"/></g><path d="M95.2 75.1c0-11.2-7.4-20.6-17.5-23.7a24.8 24.8 0 0 1-21.9 43.8 24.8 24.8 0 0 0 39.3-20.1Zm0 0"/><path fill="#003780" d="M70.4 106.2c-8 0-16-3-22-9.1a1.3 1.3 0 1 1 1.9-1.9 28.5 28.5 0 0 0 40.2 0 1.3 1.3 0 1 1 1.9 1.9c-6.1 6-14 9-22 9ZM91.4 55.4c-.3 0-.6-.2-.9-.4a28.5 28.5 0 0 0-40.3 0c-.5.5-1.3.5-1.8 0s-.5-1.4 0-1.9a31.1 31.1 0 0 1 44 0 1.3 1.3 0 0 1-1 2.3ZM101.5 75.1a1.3 1.3 0 0 1-1.3 1.3 1.3 1.3 0 0 1-1-.4l-.2-.4a1.3 1.3 0 0 1 1.2-1.8 1.3 1.3 0 0 1 1.3 1.3ZM100.5 67.4a1.3 1.3 0 0 1-.4 1 1.3 1.3 0 0 1-2.1-.5 1.3 1.3 0 0 1 .2-1.4 1.3 1.3 0 0 1 1-.4 1.3 1.3 0 0 1 1.3 1.3ZM100.5 82.8a1.3 1.3 0 0 1-.4 1 1.2 1.2 0 0 1-1 .3 1.3 1.3 0 0 1-1.2-1.3 1.3 1.3 0 0 1 .3-1 1.3 1.3 0 0 1 1-.3 1.3 1.3 0 0 1 1.3 1.3ZM41.9 75.1a1.3 1.3 0 0 1-.4 1 1.3 1.3 0 0 1-1.4.2 1.3 1.3 0 0 1-.7-.7l-.1-.5a1.3 1.3 0 0 1 1.8-1.2 1.3 1.3 0 0 1 .7.7v.5ZM43 67.4l-.2.5a1.3 1.3 0 0 1-2.5-.5 1.3 1.3 0 0 1 1.3-1.3 1.3 1.3 0 0 1 1 .4 1.3 1.3 0 0 1 .3.9ZM45.9 60.2a1.3 1.3 0 0 1-1.8 1.2 1.3 1.3 0 0 1-.7-.7 1.3 1.3 0 0 1 2.1-1.4 1.3 1.3 0 0 1 .4.9ZM45.9 90a1.3 1.3 0 0 1-.4 1 1.3 1.3 0 0 1-1.4.2c-.2 0-.3-.2-.5-.3a1.3 1.3 0 0 1-.2-1.4l.2-.4a1.3 1.3 0 0 1 1-.4h.5a1.3 1.3 0 0 1 .8 1.3ZM97.5 60.2a1.3 1.3 0 0 1-1.8 1.2 1.3 1.3 0 0 1-.7-.7 1.3 1.3 0 0 1 2.1-1.4 1.2 1.2 0 0 1 .4.9ZM97.5 90a1.3 1.3 0 0 1-.4 1 1.3 1.3 0 0 1-2.1-.5 1.3 1.3 0 0 1 0-1c0-.2.1-.3.3-.4a1.3 1.3 0 0 1 .9-.4 1.3 1.3 0 0 1 1.2.8v.5ZM43 82.8A1.3 1.3 0 0 1 42 84a1.3 1.3 0 0 1-1 0c-.2 0-.3-.1-.4-.3a1.3 1.3 0 0 1 .4-2.1 1.3 1.3 0 0 1 1.8 1.2ZM141.2 86.5c-5.7 0-9.3-3.7-9.3-10.3 0-8.9 5-16 9.9-16 2 0 3.5 1.3 3.5 3.6 0 4.8-3.2 6-3.2 6s.7 1.5 2.8 1.5c2.6 0 5.2-2.2 5.2-6.2 0-3.8-2.8-7.3-8.2-7.3-8.9 0-16 7.6-16 18.9 0 8.3 5.7 13.3 13 13.3 7.6 0 13-4.3 13.5-6.5 0-.6 0-1-.8-1-2 2.2-5.7 4-10.4 4Zm0 0"/><path fill="#003780" d="M160 90c6.5 0 10.7-4.4 11-6.3.2-.8 0-1.2-.6-1.2-1.2 1.8-3.8 4.1-8.4 4.1-3.7 0-6-2.5-6.2-5.7 7.6-1.4 12.1-4 12.1-7.9 0-2.2-1.8-4.5-6.1-4.5-5.8 0-11.6 4.6-11.6 12.2 0 5.8 4.1 9.3 9.8 9.3Zm1.8-19.3c1 0 1.5.6 1.5 1.5 0 2.8-2.2 5.4-7.4 6.7.4-5.4 3.5-8.2 6-8.2Zm0 0"/><path fill="#003780" d="m177.2 74.7.4-2c.5-2.8.1-4.2-3.2-4.2-1.6 0-2.2.4-2.2.4s.4 1 0 3.7l-2.4 13.2c-.5 3 0 4.2 3.2 4.2 1.6 0 2.3-.4 2.3-.4s-.5-.9 0-3.4c1-6 2.4-8.7 4-11 1.5-2 2.4-2.5 3-2.5.7 0 1 .3 1 .9 0 1.2-.6 2.2-.6 2.2s.9.2 2 .2c2 0 3.5-1.7 3.5-4.1 0-2.2-1.3-3.4-3.4-3.4-2 0-4.8 1.5-7.6 6.2ZM191.7 68.5h-2c-1 0-1.5.5-1.5 1.3 0 .5.3.9.3.9h2.8l-1.6 9c-.3 2.2-.4 3.7-.4 4.6 0 3.5 2.5 5.7 5.6 5.7 4.1 0 7.6-3.7 8.3-6.3.1-.8-.3-1.2-.8-1.2-1 1.8-2.7 3.8-5.2 3.8-2 0-2.9-1.4-2.4-3.8l2-11.8h3.5c1 0 1.5-.5 1.5-1.3 0-.5-.3-.9-.3-.9h-4.3l.4-2.1c.6-3 .1-4.3-3.2-4.3-1.6 0-2.2.4-2.2.4s.5 1 0 3.7Zm0 0"/><path fill="#003780" d="M205.2 62c0 1.6 1 2.7 2.5 2.7a3 3 0 0 0 3.1-3c0-1.5-1-2.7-2.6-2.7a3 3 0 0 0-3 3Zm-1.5 10.6-1.4 8a25 25 0 0 0-.4 4c0 3.5 2 5.4 5 5.4 4.2 0 7.3-4 7.7-6.3.2-.8-.2-1.2-.8-1.2-1.1 2.4-3 3.8-4.5 3.8-1.6 0-2.3-1.2-1.9-3.8l1.7-9.7c.5-3 .2-4.3-3.2-4.3-1.5 0-2.2.4-2.2.4s.4 1 0 3.7Zm0 0"/><path fill="#003780" d="M216.2 68.5h-2c-1 0-1.4.5-1.4 1.3 0 .5.3.9.3.9h2.7l-4.6 26.8c-.6 3.4-1.7 4.5-3.3 4.5-1 0-1.5-.6-1.5-.6s-.3.3-.3 1.2c0 1.4 1.2 2.5 3.5 2.5 3.6 0 6-2 7-7.6l4.7-26.8h3.6c.9 0 1.4-.5 1.4-1.3 0-.5-.3-.9-.3-.9h-4.3l1-6c.8-4.6 2.4-6 3.7-6 1 0 1.7.6 1.7 1.9 0 2.5-1.7 4.2-1.7 4.2s.5 1 2 1c2.3 0 3.8-1.8 3.8-4.4 0-2.6-1.9-4.9-5.8-4.9-4.9 0-8.2 2.8-9.5 10Zm0 0"/><path fill="#003780" d="M229.5 62c0 1.6 1 2.7 2.6 2.7a3 3 0 0 0 3-3c0-1.5-1-2.7-2.6-2.7a3 3 0 0 0-3 3ZM228 72.7l-1.4 8a25 25 0 0 0-.4 4c0 3.5 2 5.4 5 5.4 4.2 0 7.3-4 7.8-6.3 0-.8-.3-1.2-.9-1.2-1 2.4-3 3.8-4.5 3.8s-2.3-1.2-1.8-3.8l1.6-9.7c.6-3 .2-4.3-3.1-4.3-1.6 0-2.3.4-2.3.4s.5 1 0 3.7Zm0 0"/><path fill="#003780" d="M247 90c6.6 0 10.6-4.4 11-6.3.2-.8 0-1.2-.6-1.2a9.6 9.6 0 0 1-8.2 4.1c-4 0-6.3-2.5-6.3-6.6 0-5.6 3-9.3 5.7-9.3 1.2 0 2 .8 2 2 0 2.8-1.6 4.1-1.6 4.1s.5 1 2 1c2.3 0 3.8-1.9 3.8-4.4 0-2.8-2.5-4.9-6-4.9-6 0-11.5 5-11.5 12.4 0 5.6 4 9.1 9.7 9.1Zm0 0"/><path fill="#003780" d="m275 82.5 2-10.4c.4-2.4 1-3.1 1-3.1s-.8-.5-2.2-.5c-2.1 0-3.2.6-3.9 2.1a5.6 5.6 0 0 0-4.6-2c-5 0-10.6 4.4-10.6 14 0 5 2.7 7.4 6.3 7.4 2.4 0 4.8-1.7 6.6-4.8.2 3 2.1 4.8 5 4.8 4.1 0 7.2-4 7.7-6.3.1-.8-.3-1.2-.8-1.2-1.2 2.4-3.1 3.8-4.6 3.8-1.5 0-2.3-1.2-1.8-3.8Zm-10.3 3.8c-1.6 0-2.5-1.2-2.5-3.6 0-6.9 3.3-11.2 6.2-11.2 1.6 0 2.4 1.2 2.8 2l-.4 2c-.8 4.3-3 10.8-6.1 10.8Zm0 0"/><path fill="#003780" d="M283.6 68.5h-2c-1 0-1.4.5-1.4 1.3 0 .5.3.9.3.9h2.8l-1.6 9c-.4 2.2-.5 3.7-.5 4.6 0 3.5 2.5 5.7 5.7 5.7 4 0 7.5-3.7 8.2-6.3.2-.8-.2-1.2-.8-1.2-1 1.8-2.7 3.8-5.2 3.8-2 0-2.8-1.4-2.4-3.8l2-11.8h3.5c1 0 1.5-.5 1.5-1.3 0-.5-.3-.9-.3-.9h-4.3l.4-2.1c.6-3 .2-4.3-3.1-4.3-1.6 0-2.3.4-2.3.4s.5 1 0 3.7Zm0 0"/><path fill="#003780" d="M306.5 84.7c0 3.4 2 5.3 5 5.3 4.2 0 7.3-4 7.7-6.3.1-.8-.3-1.2-.8-1.2-1.1 2.4-3 3.8-4.5 3.8-1.6 0-2.3-1.2-1.9-3.8l1.7-9.7c.5-3 .1-4.3-3.2-4.3-1.6 0-2.2.4-2.2.4s.4 1 0 3.3c-.7 3.8-2.5 8.4-4.4 11.2-1 1.7-2.2 2.9-3.2 2.9-1.2 0-1.8-1.1-1.4-3.6l1.7-10c.6-3 .2-4.2-3.1-4.2-1.6 0-2.3.4-2.3.4s.5 1 0 3.7l-1.3 7.1a29 29 0 0 0-.5 5.3c0 3 1.8 5 4.7 5 2.4 0 4.3-1.2 6-3.6.8-1 1.4-2 2-3.2v1.5Zm0 0"/><path fill="#003780" d="M348.5 86.3c-1.6 0-2.2-1.3-1.8-3.8l1-6c.2-1.3.4-2.6.4-3.5 0-2.7-1.7-4.5-4.4-4.5-3 0-5.7 3-7 5.4V73c0-2.8-1.8-4.5-4.5-4.5-3 0-5.5 3-7 5.3l.3-1c.5-3 0-4.3-3.2-4.3-1.6 0-2.3.4-2.3.4s.5 1 0 3.7l-2.3 13.2c-.5 3-.1 4.2 3.2 4.2 1.6 0 2.2-.4 2.2-.4s-.4-1 0-3.7c1.5-8 4.9-13.6 7-13.6 1 0 1.3.9 1 2.7l-2 10.8c-.5 3 0 4.2 3.2 4.2 1.6 0 2.3-.4 2.3-.4s-.5-1 0-3.7c1.3-7.3 4.7-13.6 6.8-13.6 1 0 1.4.7 1 2.7l-.7 4.7c-.3 1.6-.7 3.8-.7 5 0 3.2 2 5.3 5.2 5.3 4 0 7.2-4.1 7.6-6.3.1-.8-.3-1.2-.8-1.2-1.1 2.4-2.8 3.8-4.5 3.8Zm0 0"/></svg>